<?xml version="1.0" encoding="UTF-8"?>
<svg id="Layer_2" data-name="Layer 2" xmlns="http://www.w3.org/2000/svg" viewBox="0 0 37.05 57.83">
  <defs>
    <style>
      .cls-1 {
        stroke-width: 1.5px;
      }

      .cls-1, .cls-2 {
        fill: none;
        stroke: #757575;
        stroke-miterlimit: 10;
      }
    </style>
  </defs>
  <g id="Layer_2-2" data-name="Layer 2">
    <g id="Layer_1-2" data-name="Layer 1-2">
      <g>
        <rect class="cls-2" x="10.46" y="3.44" width="16.13" height="11.67" rx="2.72" ry="2.72"/>
        <rect class="cls-2" x="14.83" y=".5" width="7.31" height="2.94" rx=".54" ry=".54"/>
        <path class="cls-1" d="M10.46,16.5S3.42,18.9,1.91,32.8h6.15l2.41-16.31h-.01Z"/>
        <path class="cls-1" d="M26.59,16.5s7.04,2.41,8.55,16.31h-6.15l-2.41-16.31h.01Z"/>
        <line class="cls-1" x1="10.82" y1="16.11" x2="26.95" y2="16.11"/>
        <polyline class="cls-1" points="8.06 32.8 7.58 37.26 29.47 37.26 28.99 32.8"/>
        <path class="cls-1" d="M5.81,40.68c1.65-.91,2.26-2.99,1.35-4.64s-2.99-2.26-4.64-1.35-2.26,2.99-1.35,4.64"/>
        <path class="cls-1" d="M31.24,40.68c-1.65-.91-2.26-2.99-1.35-4.64s2.99-2.26,4.64-1.35,2.26,2.99,1.35,4.64"/>
        <polyline class="cls-1" points="8.68 37.26 7.58 56.86 16.97 56.86 16.97 37.26"/>
        <polyline class="cls-1" points="28.37 37.48 29.47 57.08 20.08 57.08 20.08 37.48"/>
        <line class="cls-1" x1="16.97" y1="56.86" x2="16.97" y2="37.26"/>
        <line class="cls-1" x1="8.24" y1="45.23" x2="16.97" y2="45.23"/>
        <line class="cls-1" x1="20.08" y1="45.23" x2="28.8" y2="45.23"/>
        <line class="cls-1" x1="7.82" y1="52.72" x2="16.97" y2="52.72"/>
        <line class="cls-1" x1="20.2" y1="52.72" x2="29.35" y2="52.72"/>
      </g>
    </g>
  </g>
</svg>