<svg xmlns="http://www.w3.org/2000/svg" viewBox="0 0 50.85 59.1"><defs><style>.cls-1{fill:none;stroke:#757575;stroke-linecap:round;stroke-miterlimit:10;stroke-width:2px;}</style></defs><title>자산 5mdpi</title><g id="레이어_2" data-name="레이어 2"><g id="레이어_1-2" data-name="레이어 1"><rect class="cls-1" x="1" y="30.1" width="48.85" height="28"/><path class="cls-1" d="M25.34,11.29a3.76,3.76,0,0,1-3.66-2.9l.11-.18L25.43,2,29,8.39A3.65,3.65,0,0,1,25.34,11.29Z"/><path class="cls-1" d="M10.76,28.31a3.75,3.75,0,0,1-3.66-2.9l.11-.18L10.84,19l3.58,6.38A3.65,3.65,0,0,1,10.76,28.31Z"/><path class="cls-1" d="M39.79,28.31a3.76,3.76,0,0,1-3.66-2.9l.11-.18L39.88,19l3.57,6.38A3.64,3.64,0,0,1,39.79,28.31Z"/><path class="cls-1" d="M25.43,28.31a3.75,3.75,0,0,1-3.66-2.9l.1-.18L25.51,19l3.58,6.38A3.65,3.65,0,0,1,25.43,28.31Z"/><polyline class="cls-1" points="10.84 19.03 10.84 13.24 39.79 13.24 39.88 19.03"/><line class="cls-1" x1="26.98" y1="21.66" x2="38.34" y2="21.66"/><line class="cls-1" x1="23.97" y1="21.66" x2="12.31" y2="21.66"/><line class="cls-1" x1="1" y1="44.1" x2="49.85" y2="44.1"/></g></g></svg>