<svg xmlns="http://www.w3.org/2000/svg" viewBox="0 0 48.21 59.55"><defs><style>.cls-1{fill:none;stroke:#757575;stroke-linecap:round;stroke-miterlimit:10;stroke-width:2px;}</style></defs><title>자산 3mdpi</title><g id="레이어_2" data-name="레이어 2"><g id="레이어_1-2" data-name="레이어 1"><polygon class="cls-1" points="24.36 57.89 1 45.64 1 13.85 24.36 25.47 24.36 57.89"/><polyline class="cls-1" points="24.36 57.89 47.21 45.38 47.21 14.36 24.36 25.47"/><line class="cls-1" x1="1" y1="13.85" x2="11.98" y2="8.62"/><line class="cls-1" x1="34.75" y1="7.85" x2="47.21" y2="14.36"/><path class="cls-1" d="M33.12,5.72c0,2.61-4.22,4.73-9.42,4.73-4.81,0-8.77-1.81-9.34-4.15a2.25,2.25,0,0,1-.07-.58C14.29,3.11,18.51,1,23.7,1S33.12,3.11,33.12,5.72Z"/><path class="cls-1" d="M14.29,12.57a2.25,2.25,0,0,0,.07.58c.57,2.34,4.53,4.15,9.34,4.15,5.2,0,9.42-2.12,9.42-4.73"/><line class="cls-1" x1="33.6" y1="12.57" x2="33.12" y2="5.72"/><line class="cls-1" x1="14.29" y1="12.02" x2="14.29" y2="5.72"/></g></g></svg>